<svg width="425" height="92" viewBox="0 0 425 92" fill="none" xmlns="http://www.w3.org/2000/svg">
<path d="M20.864 91.1359C14.3786 91.1359 9.25863 90.1546 5.50397 88.1919C1.83463 86.1439 -3.31998e-05 83.4132 -3.31998e-05 79.9999C-3.31998e-05 78.4639 0.2133 77.0559 0.639967 75.7759C1.15197 74.4106 1.8773 73.7279 2.81597 73.7279C3.1573 73.7279 3.5413 73.8132 3.96797 73.9839C4.39463 74.1546 5.2053 74.6239 6.39997 75.3919C8.10663 76.5012 9.98397 77.5252 12.032 78.4639C14.1653 79.4026 16.2986 80.1706 18.432 80.7679C20.6506 81.2799 22.6986 81.5359 24.576 81.5359C27.3066 81.5359 29.2693 80.8959 30.464 79.6159C31.744 78.2506 32.384 76.4586 32.384 74.2399C32.384 72.6186 31.872 71.2959 30.848 70.2719C29.9093 69.1626 28.3733 67.9252 26.24 66.5599L18.304 61.4399C14.976 59.3066 12.16 57.0452 9.85597 54.6559C7.6373 52.1812 6.52797 48.9812 6.52797 45.0559C6.52797 39.5092 8.6613 35.0292 12.928 31.6159C17.1946 28.1172 23.2106 26.3679 30.976 26.3679C36.4373 26.3679 40.448 26.9226 43.008 28.0319C45.568 29.1412 46.848 31.0612 46.848 33.7919C46.848 35.9252 46.5066 37.7172 45.824 39.1679C45.2266 40.6186 44.3733 41.3439 43.264 41.3439C42.9226 41.3439 42.4533 41.2586 41.856 41.0879C41.344 40.9172 40.8746 40.7039 40.448 40.4479C39.7653 40.0212 38.6986 39.4239 37.248 38.6559C35.7973 37.8879 34.176 37.2052 32.384 36.6079C30.592 35.9252 28.7146 35.5839 26.752 35.5839C24.7893 35.5839 23.168 36.1812 21.888 37.3759C20.6933 38.4852 20.096 40.0212 20.096 41.9839C20.096 43.6052 20.608 44.9706 21.632 46.0799C22.656 47.1892 24.3626 48.3412 26.752 49.5359L35.072 53.3759C38.5706 54.9972 41.3866 56.9172 43.52 59.1359C45.7386 61.2692 46.848 64.4692 46.848 68.7359C46.848 73.7706 45.6106 77.9519 43.136 81.2799C40.7466 84.6079 37.5466 87.0826 33.536 88.7039C29.6106 90.3252 25.3866 91.1359 20.864 91.1359ZM294.784 91.1359C288.213 91.1359 283.136 89.0879 279.552 84.9919C275.968 80.8106 274.176 75.0932 274.176 67.8399C274.176 61.7812 275.029 56.2346 276.736 51.1999C278.443 46.1652 280.832 41.7706 283.904 38.0159C286.976 34.2612 290.56 31.3599 294.656 29.3119C298.837 27.2639 303.36 26.2399 308.224 26.2399C314.027 26.2399 318.464 27.4772 321.536 29.9519C324.608 32.4266 326.144 35.9679 326.144 40.5759C326.144 45.2692 324.565 49.3652 321.408 52.8639C318.336 56.3626 313.856 59.3492 307.968 61.8239C302.165 64.2986 295.211 66.3892 287.104 68.0959L285.44 60.4159C290.133 59.8186 294.443 58.7946 298.368 57.3439C302.293 55.8932 305.451 53.9732 307.84 51.5839C310.229 49.1092 311.424 46.2079 311.424 42.8799C311.424 40.5759 310.955 38.8266 310.016 37.6319C309.163 36.4372 307.584 35.8399 305.28 35.8399C301.781 35.8399 298.795 37.1199 296.32 39.6799C293.931 42.2399 292.096 45.5679 290.816 49.6639C289.621 53.7599 289.024 58.1119 289.024 62.7199C289.024 68.9492 289.963 73.1306 291.84 75.2639C293.803 77.3119 296.661 78.3359 300.416 78.3359C304.341 78.3359 307.755 77.7386 310.656 76.5439C313.643 75.2639 316.203 73.9412 318.336 72.5759C319.019 72.1492 319.616 71.8079 320.128 71.5519C320.64 71.2959 321.067 71.1679 321.408 71.1679C321.835 71.1679 322.176 71.3386 322.432 71.6799C322.688 72.0212 322.816 72.4052 322.816 72.8319C322.816 74.3679 322.133 76.1599 320.768 78.2079C319.403 80.2559 317.44 82.2612 314.88 84.2239C312.405 86.1866 309.461 87.8079 306.048 89.0879C302.635 90.4532 298.88 91.1359 294.784 91.1359ZM347.057 86.0159L343.985 66.6879C347.142 58.4959 350.342 51.4132 353.585 45.4399C356.913 39.3812 360.284 34.6879 363.697 31.3599C367.11 28.0319 370.566 26.3679 374.065 26.3679C376.028 26.3679 377.436 27.0079 378.289 28.2879C379.142 29.4826 379.569 31.0186 379.569 32.8959C379.569 34.6026 379.356 36.2666 378.929 37.8879C378.588 39.4239 378.033 40.7039 377.265 41.7279C376.582 42.7519 375.729 43.2639 374.705 43.2639C373.766 43.2639 372.7 42.9652 371.505 42.3679C370.396 41.7706 368.86 41.4719 366.897 41.4719C365.617 41.4719 363.996 42.7946 362.033 45.4399C360.07 48.0852 358.022 51.6266 355.889 56.0639C353.841 60.4159 352.006 65.2372 350.385 70.5279C348.764 75.7332 347.654 80.8959 347.057 86.0159ZM336.305 90.8799C335.196 90.8799 334.342 90.6666 333.745 90.2399C333.233 89.8986 332.934 88.9172 332.849 87.2959C332.849 85.6746 333.062 83.0719 333.489 79.4879L339.505 26.2399H348.465C349.745 26.2399 350.897 27.1786 351.921 29.0559C352.945 30.9332 353.457 33.0666 353.457 35.4559C353.457 36.5652 353.116 38.3146 352.433 40.7039C351.836 43.0079 351.11 45.4826 350.257 48.1279C349.404 50.6879 348.636 52.9492 347.953 54.9119L344.625 65.4079L349.361 64.6399L347.057 86.0159C346.972 86.8692 346.46 87.6372 345.521 88.3199C344.582 88.9172 343.473 89.3866 342.193 89.7279C340.998 90.1546 339.846 90.4532 338.737 90.6239C337.628 90.7946 336.817 90.8799 336.305 90.8799ZM398.864 91.1359C392.379 91.1359 387.259 90.1546 383.504 88.1919C379.835 86.1439 378 83.4132 378 79.9999C378 78.4639 378.213 77.0559 378.64 75.7759C379.152 74.4106 379.877 73.7279 380.816 73.7279C381.157 73.7279 381.541 73.8132 381.968 73.9839C382.395 74.1546 383.205 74.6239 384.4 75.3919C386.107 76.5012 387.984 77.5252 390.032 78.4639C392.165 79.4026 394.299 80.1706 396.432 80.7679C398.651 81.2799 400.699 81.5359 402.576 81.5359C405.307 81.5359 407.269 80.8959 408.464 79.6159C409.744 78.2506 410.384 76.4586 410.384 74.2399C410.384 72.6186 409.872 71.2959 408.848 70.2719C407.909 69.1626 406.373 67.9252 404.24 66.5599L396.304 61.4399C392.976 59.3066 390.16 57.0452 387.856 54.6559C385.637 52.1812 384.528 48.9812 384.528 45.0559C384.528 39.5092 386.661 35.0292 390.928 31.6159C395.195 28.1172 401.211 26.3679 408.976 26.3679C414.437 26.3679 418.448 26.9226 421.008 28.0319C423.568 29.1412 424.848 31.0612 424.848 33.7919C424.848 35.9252 424.507 37.7172 423.824 39.1679C423.227 40.6186 422.373 41.3439 421.264 41.3439C420.923 41.3439 420.453 41.2586 419.856 41.0879C419.344 40.9172 418.875 40.7039 418.448 40.4479C417.765 40.0212 416.699 39.4239 415.248 38.6559C413.797 37.8879 412.176 37.2052 410.384 36.6079C408.592 35.9252 406.715 35.5839 404.752 35.5839C402.789 35.5839 401.168 36.1812 399.888 37.3759C398.693 38.4852 398.096 40.0212 398.096 41.9839C398.096 43.6052 398.608 44.9706 399.632 46.0799C400.656 47.1892 402.363 48.3412 404.752 49.5359L413.072 53.3759C416.571 54.9972 419.387 56.9172 421.52 59.1359C423.739 61.2692 424.848 64.4692 424.848 68.7359C424.848 73.7706 423.611 77.9519 421.136 81.2799C418.747 84.6079 415.547 87.0826 411.536 88.7039C407.611 90.3252 403.387 91.1359 398.864 91.1359Z" fill="#F6F0E8"/>
<path d="M96.937 90.3679C96.2543 90.3679 95.657 89.9412 95.145 89.0879C94.7183 88.1492 94.4196 87.1252 94.249 86.0159C94.0783 84.9066 93.993 84.0106 93.993 83.3279C93.993 82.1332 94.0783 80.5972 94.249 78.7199C94.4196 76.8426 94.633 74.8799 94.889 72.8319C95.145 70.6986 95.401 68.8639 95.657 67.3279L97.833 54.0159C98.089 52.3092 98.345 50.7306 98.601 49.2799C98.857 47.7439 98.985 46.1226 98.985 44.4159C98.985 43.1359 98.729 42.1546 98.217 41.4719C97.705 40.7892 97.0223 40.4479 96.169 40.4479C95.0596 40.4479 93.225 41.5146 90.665 43.6479C88.1903 45.6959 85.5023 48.6826 82.601 52.6079C79.785 56.5332 77.1823 61.3119 74.793 66.9439C72.489 72.4906 70.9956 78.8052 70.313 85.8879L67.113 66.6879C70.6116 56.7892 74.537 48.8959 78.889 43.0079C83.241 37.1199 87.5503 32.8959 91.817 30.3359C96.0836 27.6906 99.8383 26.3679 103.081 26.3679C106.836 26.3679 109.566 27.4772 111.273 29.6959C112.98 31.8292 113.833 34.6026 113.833 38.0159C113.833 39.8932 113.662 41.8559 113.321 43.9039C113.065 45.9519 112.766 48.0852 112.425 50.3039L106.281 90.3679H96.937ZM58.921 90.8799C57.8116 90.8799 56.9583 90.6239 56.361 90.1119C55.849 89.6852 55.593 88.6612 55.593 87.0399C55.593 85.4186 55.7636 82.9012 56.105 79.4879L61.609 29.0559C62.121 24.1919 62.761 19.3706 63.529 14.5919C64.297 9.72788 64.809 4.86388 65.065 -0.000114441H74.025C75.7316 -0.000114441 76.969 1.15189 77.737 3.45589C78.5903 5.75989 79.017 8.10655 79.017 10.4959C79.017 12.3732 78.9316 14.0799 78.761 15.6159C78.5903 17.0666 78.3343 18.6026 77.993 20.2239C77.6516 21.8452 77.1823 23.8932 76.585 26.3679L68.393 63.8719L72.617 58.6239C72.0196 64.0852 71.5503 69.2479 71.209 74.1119C70.8676 78.9759 70.569 82.9012 70.313 85.8879C70.313 86.7412 69.545 87.5519 68.009 88.3199C66.5583 89.0879 64.937 89.6852 63.145 90.1119C61.353 90.6239 59.945 90.8799 58.921 90.8799ZM135.5 91.1359C130.721 91.1359 127.308 89.2159 125.26 85.3759C123.212 81.4506 122.188 75.9892 122.188 68.9919C122.188 62.7626 123.084 57.0452 124.876 51.8399C126.753 46.6346 129.271 42.1546 132.428 38.3999C135.585 34.5599 139.255 31.6159 143.436 29.5679C147.617 27.4346 152.055 26.3679 156.748 26.3679C160.417 26.3679 163.745 26.8799 166.732 27.9039C169.804 28.8426 172.407 29.8239 174.54 30.8479L170.828 44.2879C168.524 42.7519 165.921 41.3439 163.02 40.0639C160.204 38.7839 157.559 37.8026 155.084 37.1199C152.695 36.3519 150.903 35.9679 149.708 35.9679C147.319 35.9679 145.1 37.1626 143.052 39.5519C141.089 41.8559 139.511 45.0986 138.316 49.2799C137.207 53.3759 136.652 58.1119 136.652 63.4879C136.652 68.4372 136.993 72.1919 137.676 74.7519C138.444 77.3119 139.639 78.5919 141.26 78.5919C142.369 78.5919 144.247 77.3546 146.892 74.8799C149.537 72.3199 152.737 68.0959 156.492 62.2079C160.247 56.3199 164.215 48.3412 168.396 38.2719L171.98 49.6639C167.372 59.9039 162.977 68.0532 158.796 74.1119C154.615 80.1706 150.604 84.5226 146.764 87.1679C142.924 89.8132 139.169 91.1359 135.5 91.1359ZM166.092 90.3679C164.385 90.3679 163.361 89.5572 163.02 87.9359C162.679 86.2292 162.508 84.4372 162.508 82.5599C162.508 81.1092 162.679 79.3172 163.02 77.1839C163.447 75.0506 163.959 72.7466 164.556 70.2719C165.153 67.7972 165.793 65.3652 166.476 62.9759L169.292 53.3759L165.58 50.0479L168.652 30.7199C171.383 30.2932 173.772 29.7386 175.82 29.0559C177.953 28.3732 179.703 27.7759 181.068 27.2639C182.519 26.7519 183.543 26.4959 184.14 26.4959C185.079 26.4959 185.548 27.0079 185.548 28.0319C185.548 28.4586 184.993 30.2932 183.884 33.5359C182.86 36.6932 181.708 40.7466 180.428 45.6959C179.233 50.6452 178.337 56.0212 177.74 61.8239L175.052 90.3679H166.092Z" fill="#F6F0E8"/>
<path d="M204.387 91.1359C200.291 91.1359 197.39 89.9412 195.683 87.5519C194.062 85.1626 193.55 81.4079 194.147 76.2879L199.139 37.2479H195.043C193.763 37.2479 193.123 36.5652 193.123 35.1999C193.123 34.3466 193.678 33.1092 194.787 31.4879C195.982 29.8666 197.475 28.0746 199.267 26.1119C201.059 24.1492 202.894 22.2719 204.771 20.4799C206.734 18.6879 208.526 17.2372 210.147 16.1279C211.768 14.9332 213.006 14.3359 213.859 14.3359C214.798 14.3359 215.438 14.7199 215.779 15.4879C216.12 16.1706 216.206 17.0666 216.035 18.1759L214.883 28.2879H229.219C230.499 28.2879 231.224 28.5012 231.395 28.9279C231.651 29.3546 231.608 30.0372 231.267 30.9759C230.243 33.8772 229.262 35.6692 228.323 36.3519C227.47 36.9492 225.848 37.2479 223.459 37.2479H213.219L210.019 64.6399C209.848 66.2612 209.678 67.7972 209.507 69.2479C209.422 70.6986 209.379 72.0212 209.379 73.2159C209.379 75.1786 209.848 76.5866 210.787 77.4399C211.726 78.2079 213.262 78.5919 215.395 78.5919C217.443 78.5919 219.192 78.1652 220.643 77.3119C222.179 76.4586 223.246 76.0319 223.843 76.0319C224.526 76.0319 224.867 76.4586 224.867 77.3119C224.867 78.1652 224.398 79.3599 223.459 80.8959C222.606 82.4319 221.283 84.0106 219.491 85.6319C217.784 87.1679 215.651 88.4479 213.091 89.4719C210.531 90.5812 207.63 91.1359 204.387 91.1359ZM247.387 91.1359C243.291 91.1359 240.39 89.9412 238.683 87.5519C237.062 85.1626 236.55 81.4079 237.147 76.2879L242.139 37.2479H238.043C236.763 37.2479 236.123 36.5652 236.123 35.1999C236.123 34.3466 236.678 33.1092 237.787 31.4879C238.982 29.8666 240.475 28.0746 242.267 26.1119C244.059 24.1492 245.894 22.2719 247.771 20.4799C249.734 18.6879 251.526 17.2372 253.147 16.1279C254.768 14.9332 256.006 14.3359 256.859 14.3359C257.798 14.3359 258.438 14.7199 258.779 15.4879C259.12 16.1706 259.206 17.0666 259.035 18.1759L257.883 28.2879H272.219C273.499 28.2879 274.224 28.5012 274.395 28.9279C274.651 29.3546 274.608 30.0372 274.267 30.9759C273.243 33.8772 272.262 35.6692 271.323 36.3519C270.47 36.9492 268.848 37.2479 266.459 37.2479H256.219L253.019 64.6399C252.848 66.2612 252.678 67.7972 252.507 69.2479C252.422 70.6986 252.379 72.0212 252.379 73.2159C252.379 75.1786 252.848 76.5866 253.787 77.4399C254.726 78.2079 256.262 78.5919 258.395 78.5919C260.443 78.5919 262.192 78.1652 263.643 77.3119C265.179 76.4586 266.246 76.0319 266.843 76.0319C267.526 76.0319 267.867 76.4586 267.867 77.3119C267.867 78.1652 267.398 79.3599 266.459 80.8959C265.606 82.4319 264.283 84.0106 262.491 85.6319C260.784 87.1679 258.651 88.4479 256.091 89.4719C253.531 90.5812 250.63 91.1359 247.387 91.1359Z" fill="#FF8F2D"/>
</svg>
