<svg width="164" height="217" viewBox="0 0 164 217" fill="none" xmlns="http://www.w3.org/2000/svg">
<path d="M43.4334 148.14C37.3104 146.277 33.7186 143.246 32.6581 139.048C31.7251 134.888 33.3023 129.276 37.3896 122.213L69.2093 68.5569L63.0863 66.6945C61.1729 66.1125 60.6421 64.8435 61.4939 62.8877C62.0263 61.6652 63.6274 60.1449 66.2973 58.3267C69.0947 56.5473 72.4451 54.6592 76.3485 52.6625C80.2518 50.6657 84.1657 48.8106 88.0901 47.0971C92.1421 45.4224 95.726 44.1591 98.8418 43.3072C102.011 42.333 104.233 42.0399 105.509 42.4279C106.912 42.8547 107.629 43.6958 107.66 44.9512C107.745 46.0844 107.313 47.4067 106.366 48.9183L98.3348 62.8802L119.765 69.3988C121.679 69.9808 122.63 70.6162 122.619 71.305C122.735 72.0326 122.246 72.9912 121.15 74.1806C117.809 77.8713 115.224 79.9922 113.395 80.5433C111.747 81.011 109.136 80.7016 105.565 79.6152L90.2572 74.9591L68.3836 112.744C67.1169 114.989 65.9034 117.112 64.7432 119.112C63.7106 121.152 62.8216 123.027 62.0762 124.738C60.8517 127.55 60.6749 129.78 61.5456 131.43C62.4697 132.957 64.5262 134.205 67.7153 135.175C70.7768 136.106 73.658 136.291 76.359 135.728C79.1875 135.204 81.0483 135.078 81.9412 135.349C82.9617 135.66 83.2058 136.426 82.6734 137.648C82.141 138.871 80.694 140.369 78.3325 142.142C76.0986 143.955 73.1364 145.615 69.446 147.123C65.9364 148.547 61.9488 149.411 57.483 149.713C52.964 150.139 48.2808 149.614 43.4334 148.14Z" fill="#FF8F2D"/>
<path d="M119.585 68.4948C125.708 70.3572 129.299 73.3878 130.36 77.5867C131.293 81.7467 129.716 87.3582 125.628 94.4211L93.8088 148.077L99.9318 149.94C101.845 150.522 102.376 151.791 101.524 153.747C100.992 154.969 99.3906 156.489 96.7208 158.308C93.9233 160.087 90.5729 161.975 86.6696 163.972C82.7663 165.969 78.8524 167.824 74.928 169.537C70.876 171.212 67.2921 172.475 64.1763 173.327C61.0072 174.301 58.7849 174.594 57.5093 174.206C56.1061 173.78 55.3889 172.938 55.3578 171.683C55.2735 170.55 55.705 169.228 56.6522 167.716L64.6832 153.754L43.2527 147.236C41.3392 146.653 40.388 146.018 40.3991 145.329C40.2826 144.602 40.7723 143.643 41.8682 142.454C45.2091 138.763 47.7941 136.642 49.6233 136.091C51.2716 135.623 53.8816 135.933 57.4534 137.019L72.7609 141.675L94.6345 103.89C95.9012 101.645 97.1146 99.5225 98.2748 97.522C99.3075 95.4827 100.196 93.6073 100.942 91.8959C102.166 89.0843 102.343 86.8539 101.472 85.2047C100.548 83.6777 98.4918 82.4292 95.3028 81.4591C92.2413 80.5279 89.36 80.3437 86.6591 80.9065C83.8305 81.4305 81.9698 81.5567 81.0769 81.2851C80.0564 80.9747 79.8123 80.2083 80.3447 78.9859C80.8771 77.7635 82.3241 76.2655 84.6856 74.4919C86.9195 72.6795 89.8817 71.0195 93.572 69.5117C97.0816 68.0873 101.069 67.2237 105.535 66.9208C110.054 66.4957 114.737 67.0203 119.585 68.4948Z" fill="#FF8F2D"/>
</svg>
